<svg viewBox="0 0 1033 400" xmlns="http://www.w3.org/2000/svg"><g><g><g><g><g><line x1="51.5625" y1="377" x2="46.5625" y2="377" style="visibility: inherit;" fill="rgb(0, 0, 0)" stroke="rgb(204, 204, 204)" stroke-width="1px"></line><line x1="51.5625" y1="342.72727272727275" x2="46.5625" y2="342.72727272727275" style="visibility: inherit;" fill="rgb(0, 0, 0)" stroke="rgb(204, 204, 204)" stroke-width="1px"></line><line x1="51.5625" y1="308.45454545454544" x2="46.5625" y2="308.45454545454544" style="visibility: inherit;" fill="rgb(0, 0, 0)" stroke="rgb(204, 204, 204)" stroke-width="1px"></line><line x1="51.5625" y1="274.1818181818182" x2="46.5625" y2="274.1818181818182" style="visibility: inherit;" fill="rgb(0, 0, 0)" stroke="rgb(204, 204, 204)" stroke-width="1px"></line><line x1="51.5625" y1="239.9090909090909" x2="46.5625" y2="239.9090909090909" style="visibility: inherit;" fill="rgb(0, 0, 0)" stroke="rgb(204, 204, 204)" stroke-width="1px"></line><line x1="51.5625" y1="205.6363636363637" x2="46.5625" y2="205.6363636363637" style="visibility: inherit;" fill="rgb(0, 0, 0)" stroke="rgb(204, 204, 204)" stroke-width="1px"></line><line x1="51.5625" y1="171.36363636363637" x2="46.5625" y2="171.36363636363637" style="visibility: inherit;" fill="rgb(0, 0, 0)" stroke="rgb(204, 204, 204)" stroke-width="1px"></line><line x1="51.5625" y1="137.0909090909091" x2="46.5625" y2="137.0909090909091" style="visibility: inherit;" fill="rgb(0, 0, 0)" stroke="rgb(204, 204, 204)" stroke-width="1px"></line><line x1="51.5625" y1="102.81818181818186" x2="46.5625" y2="102.81818181818186" style="visibility: inherit;" fill="rgb(0, 0, 0)" stroke="rgb(204, 204, 204)" stroke-width="1px"></line><line x1="51.5625" y1="68.54545454545458" x2="46.5625" y2="68.54545454545458" style="visibility: inherit;" fill="rgb(0, 0, 0)" stroke="rgb(204, 204, 204)" stroke-width="1px"></line><line x1="51.5625" y1="34.27272727272732" x2="46.5625" y2="34.27272727272732" style="visibility: inherit;" fill="rgb(0, 0, 0)" stroke="rgb(204, 204, 204)" stroke-width="1px"></line><line x1="51.5625" y1="0" x2="46.5625" y2="0" style="visibility: inherit;" fill="rgb(0, 0, 0)" stroke="rgb(204, 204, 204)" stroke-width="1px"></line></g><g transform="translate(41.5625, 0)"><text x="0" y="377" dx="0em" dy="0.3em" style="text-anchor: end; visibility: hidden; font-family: Roboto, sans-serif; font-size: 12px; font-weight: 200;" fill="rgb(33, 33, 33)" stroke="none" stroke-width="1px">0.45</text><text x="0" y="342.72727272727275" dx="0em" dy="0.3em" style="text-anchor: end; visibility: inherit; font-family: Roboto, sans-serif; font-size: 12px; font-weight: 200;" fill="rgb(33, 33, 33)" stroke="none" stroke-width="1px">0.5</text><text x="0" y="308.45454545454544" dx="0em" dy="0.3em" style="text-anchor: end; visibility: inherit; font-family: Roboto, sans-serif; font-size: 12px; font-weight: 200;" fill="rgb(33, 33, 33)" stroke="none" stroke-width="1px">0.55</text><text x="0" y="274.1818181818182" dx="0em" dy="0.3em" style="text-anchor: end; visibility: inherit; font-family: Roboto, sans-serif; font-size: 12px; font-weight: 200;" fill="rgb(33, 33, 33)" stroke="none" stroke-width="1px">0.6</text><text x="0" y="239.9090909090909" dx="0em" dy="0.3em" style="text-anchor: end; visibility: inherit; font-family: Roboto, sans-serif; font-size: 12px; font-weight: 200;" fill="rgb(33, 33, 33)" stroke="none" stroke-width="1px">0.65</text><text x="0" y="205.6363636363637" dx="0em" dy="0.3em" style="text-anchor: end; visibility: inherit; font-family: Roboto, sans-serif; font-size: 12px; font-weight: 200;" fill="rgb(33, 33, 33)" stroke="none" stroke-width="1px">0.7</text><text x="0" y="171.36363636363637" dx="0em" dy="0.3em" style="text-anchor: end; visibility: inherit; font-family: Roboto, sans-serif; font-size: 12px; font-weight: 200;" fill="rgb(33, 33, 33)" stroke="none" stroke-width="1px">0.75</text><text x="0" y="137.0909090909091" dx="0em" dy="0.3em" style="text-anchor: end; visibility: inherit; font-family: Roboto, sans-serif; font-size: 12px; font-weight: 200;" fill="rgb(33, 33, 33)" stroke="none" stroke-width="1px">0.8</text><text x="0" y="102.81818181818186" dx="0em" dy="0.3em" style="text-anchor: end; visibility: inherit; font-family: Roboto, sans-serif; font-size: 12px; font-weight: 200;" fill="rgb(33, 33, 33)" stroke="none" stroke-width="1px">0.85</text><text x="0" y="68.54545454545458" dx="0em" dy="0.3em" style="text-anchor: end; visibility: inherit; font-family: Roboto, sans-serif; font-size: 12px; font-weight: 200;" fill="rgb(33, 33, 33)" stroke="none" stroke-width="1px">0.9</text><text x="0" y="34.27272727272732" dx="0em" dy="0.3em" style="text-anchor: end; visibility: inherit; font-family: Roboto, sans-serif; font-size: 12px; font-weight: 200;" fill="rgb(33, 33, 33)" stroke="none" stroke-width="1px">0.95</text><text x="0" y="0" dx="0em" dy="0.3em" style="text-anchor: end; visibility: hidden; font-family: Roboto, sans-serif; font-size: 12px; font-weight: 200;" fill="rgb(33, 33, 33)" stroke="none" stroke-width="1px">1</text></g><line x1="51.5625" y1="0" x2="51.5625" y2="377" fill="rgb(0, 0, 0)" stroke="rgb(204, 204, 204)" stroke-width="1px"></line></g></g><g transform="translate(51, 0)" clip-path="url(#clip_0)"><clipPath id="clip_0"><rect width="981" height="377"></rect></clipPath><g><g><g><line x1="0" y1="0" x2="0" y2="377" fill="rgb(0, 0, 0)" stroke="rgb(66, 66, 66)" stroke-width="1px" opacity="0.25"></line><line x1="122.6796875" y1="0" x2="122.6796875" y2="377" fill="rgb(0, 0, 0)" stroke="rgb(66, 66, 66)" stroke-width="1px" opacity="0.25"></line><line x1="245.359375" y1="0" x2="245.359375" y2="377" fill="rgb(0, 0, 0)" stroke="rgb(66, 66, 66)" stroke-width="1px" opacity="0.25"></line><line x1="368.0390625" y1="0" x2="368.0390625" y2="377" fill="rgb(0, 0, 0)" stroke="rgb(66, 66, 66)" stroke-width="1px" opacity="0.25"></line><line x1="490.71875" y1="0" x2="490.71875" y2="377" fill="rgb(0, 0, 0)" stroke="rgb(66, 66, 66)" stroke-width="1px" opacity="0.25"></line><line x1="613.3984375" y1="0" x2="613.3984375" y2="377" fill="rgb(0, 0, 0)" stroke="rgb(66, 66, 66)" stroke-width="1px" opacity="0.25"></line><line x1="736.078125" y1="0" x2="736.078125" y2="377" fill="rgb(0, 0, 0)" stroke="rgb(66, 66, 66)" stroke-width="1px" opacity="0.25"></line><line x1="858.7578125" y1="0" x2="858.7578125" y2="377" fill="rgb(0, 0, 0)" stroke="rgb(66, 66, 66)" stroke-width="1px" opacity="0.25"></line><line x1="981.4375" y1="0" x2="981.4375" y2="377" fill="rgb(0, 0, 0)" stroke="rgb(66, 66, 66)" stroke-width="1px" opacity="0.25"></line></g><g><line x1="0" y1="377" x2="981.4375" y2="377" fill="rgb(0, 0, 0)" stroke="rgb(66, 66, 66)" stroke-width="1px" opacity="0.25"></line><line x1="0" y1="342.72727272727275" x2="981.4375" y2="342.72727272727275" fill="rgb(0, 0, 0)" stroke="rgb(66, 66, 66)" stroke-width="1px" opacity="0.25"></line><line x1="0" y1="308.45454545454544" x2="981.4375" y2="308.45454545454544" fill="rgb(0, 0, 0)" stroke="rgb(66, 66, 66)" stroke-width="1px" opacity="0.25"></line><line x1="0" y1="274.1818181818182" x2="981.4375" y2="274.1818181818182" fill="rgb(0, 0, 0)" stroke="rgb(66, 66, 66)" stroke-width="1px" opacity="0.25"></line><line x1="0" y1="239.9090909090909" x2="981.4375" y2="239.9090909090909" fill="rgb(0, 0, 0)" stroke="rgb(66, 66, 66)" stroke-width="1px" opacity="0.25"></line><line x1="0" y1="205.6363636363637" x2="981.4375" y2="205.6363636363637" fill="rgb(0, 0, 0)" stroke="rgb(66, 66, 66)" stroke-width="1px" opacity="0.25"></line><line x1="0" y1="171.36363636363637" x2="981.4375" y2="171.36363636363637" fill="rgb(0, 0, 0)" stroke="rgb(66, 66, 66)" stroke-width="1px" opacity="0.25"></line><line x1="0" y1="137.0909090909091" x2="981.4375" y2="137.0909090909091" fill="rgb(0, 0, 0)" stroke="rgb(66, 66, 66)" stroke-width="1px" opacity="0.25"></line><line x1="0" y1="102.81818181818186" x2="981.4375" y2="102.81818181818186" fill="rgb(0, 0, 0)" stroke="rgb(66, 66, 66)" stroke-width="1px" opacity="0.25"></line><line x1="0" y1="68.54545454545458" x2="981.4375" y2="68.54545454545458" fill="rgb(0, 0, 0)" stroke="rgb(66, 66, 66)" stroke-width="1px" opacity="0.25"></line><line x1="0" y1="34.27272727272732" x2="981.4375" y2="34.27272727272732" fill="rgb(0, 0, 0)" stroke="rgb(66, 66, 66)" stroke-width="1px" opacity="0.25"></line><line x1="0" y1="0" x2="981.4375" y2="0" fill="rgb(0, 0, 0)" stroke="rgb(66, 66, 66)" stroke-width="1px" opacity="0.25"></line></g></g></g><g><g><line x1="0" y1="685.4545454545454" x2="981.4375" y2="685.4545454545454" fill="rgb(0, 0, 0)" stroke="rgb(153, 153, 153)" stroke-width="1.5px"></line></g></g><g><g><line x1="122.6796875" y1="0" x2="122.6796875" y2="377" fill="rgb(0, 0, 0)" stroke="rgb(153, 153, 153)" stroke-width="1.5px"></line></g></g><g><g><g><g><g><path stroke="rgb(255, 112, 67)" stroke-width="2px" d="M153.349609375,-17.203666951692195L159.48359375,7.376502319645162L165.61757812500002,25.439621691797385L171.75156249999998,26.920775305535436L177.885546875,36.36741977892027L184.01953125,40.08233220520589L190.153515625,44.278165531463735L196.28750000000002,73.2417756411166L202.42148437499998,74.05216476369623L208.55546875,94.05670679450934L214.689453125,92.11130884442497L220.8234375,79.08661712320853L226.95742187500002,85.66762487365787L233.09140624999998,78.5059266839994L239.225390625,91.62659838083243L245.359375,107.34684209801968L251.49335937499998,105.12772422956934L257.62734375,105.4317011535254L263.761328125,124.36884816613063L269.89531250000005,131.1596267658974L276.029296875,133.44587081761912L282.16328124999995,155.4644647788991L288.297265625,127.53951289697697L294.43125,124.1739702813696L300.56523437500005,135.71592720723413L306.69921875,144.97335508361834L312.83320312499995,164.23530492948683L318.9671875,162.1144613894207L325.101171875,172.65780303104586L331.23515625000005,162.86538585082124L337.369140625,155.26575187309697L343.50312499999995,154.48596145849982L349.637109375,166.9338670154735L355.77109375,166.80113694067768L361.90507812500005,165.8106327636042L368.0390625,167.8393521250024L374.17304687499995,175.01718737217806L380.30703125,185.32034761364545L386.441015625,184.4587363940743L392.57500000000005,180.48384165459248L398.708984375,171.0006010157455L404.84296874999995,160.60365425309712L410.976953125,182.85736110855757L417.1109375,190.73021948222254L423.24492187500005,178.49258280798466L429.37890625,170.24554093692964L435.51289062499995,175.603049625161L441.646875,187.31177045658822L447.780859375,187.2894263112065L453.91484375000005,218.10954760575643L460.048828125,224.59783442546853L466.18281249999995,223.3762219412914L472.316796875,230.7317999466008L478.45078125,233.57119962357007L484.58476562500005,242.94197696588745L490.71875,216.83608146123623L496.85273437499995,224.40450055368282L502.98671874999997,213.34059594579315L509.12070312500003,225.3941786200273L515.2546875,217.4204725949068L521.388671875,223.46710031796093L527.52265625,220.9829782579458L533.6566406249999,228.05789227092959L539.7906250000001,232.67675730469642L545.924609375,232.42598671355628L552.05859375,252.82060870529662L558.192578125,241.76281734976772L564.3265624999999,238.67791544925598L570.4605468750001,232.30469131840667L576.59453125,222.91136021403153L582.728515625,219.19091616157215L588.8625,243.5718387337808L594.9964843749999,243.388668958139L601.1304687500001,271.3523881490505L607.264453125,274.6334061265547L613.3984375,277.99645791078774L619.532421875,265.32403953827344L625.6664062499999,276.8561313843326L631.8003906250001,266.7597122910433L637.934375,265.24918055074295L644.068359375,278.7507940914987L650.20234375,290.13170394818536L656.3363281249999,295.0862379121381L662.4703125000001,296.1333366942599L668.604296875,301.90538460468247L674.73828125,304.11682612191817L680.872265625,284.2140516321242L687.0062499999999,291.9095631484778L693.1402343750001,286.28892497848653L699.27421875,283.8793937308913L705.408203125,292.24820197374487L711.5421875,298.5177114813216L717.6761718749999,285.92896484946976L723.8101562500001,290.5538610652216L729.944140625,285.58535807992337L736.078125,289.2501013551617L742.212109375,293.9240367836254L748.3460937499999,293.0308234685739L754.4800781250001,329.0394604202557L760.6140625,332.31908353871074L766.748046875,332.1711233961396L772.88203125,331.7327810243365L779.0160156249999,333.1876675544629L785.1500000000001,356.6698980702213L791.283984375,341.2819816638435L797.41796875,346.5241114966624L803.551953125,342.99060600127996L809.6859374999999,346.8043454714192L815.8199218750001,326.75455987726184L821.95390625,332.52035803308263L828.087890625,343.44734253331313L834.221875,356.6681803574818L840.3558593749999,345.1347273177301L846.4898437500001,347.6956236874534L852.623828125,351.68610376482775L858.7578125,351.5491331414858L864.891796875,348.860884258754L871.0257812499999,354.775956849926L877.1597656250001,358.95618082108314L883.29375,335.41501633213016L889.427734375,334.99354485530563L895.56171875,341.2725997417883L901.6957031249999,331.39078476725314" style="fill: none;" fill="none"></path></g></g></g></g><g opacity="0.2"><g><g><g><path stroke="rgb(255, 112, 67)" stroke-width="2px" d="M147.215625,-3.4067596088756367L153.349609375,26.490023677999314L159.48359375,41.3797252828425L165.61757812500002,51.27017140388493L171.75156249999998,29.080311493440085L177.885546875,50.299385460940314L184.01953125,45.598544207486285L190.153515625,50.53385962139479L196.28750000000002,116.52957211841237L202.42148437499998,75.26510238647465L208.55546875,124.02432886036964L214.689453125,89.19549866156146L220.8234375,59.55876556309791L226.95742187500002,95.5363516374068L233.09140624999998,67.76519775390629L239.225390625,111.30560712380846L245.359375,130.92577078125694L251.49335937499998,101.7991691285914L257.62734375,105.88765653696932L263.761328125,152.77419480410495L269.89531250000005,141.34571422230115L276.029296875,136.87522064555776L282.16328124999995,188.49226182157344L288.297265625,85.6521565263922L294.43125,119.12566152485938L300.56523437500005,153.028851964257L306.69921875,158.85949178175494L312.83320312499995,193.1282233108174L318.9671875,158.9331965012984L325.101171875,188.4728142348203L331.23515625000005,148.17676078189504L337.369140625,143.86630123311824L343.50312499999995,153.31627585671166L349.637109375,185.60572515834463L355.77109375,166.6020418297161L361.90507812500005,164.32487650351092L368.0390625,170.88243116031995L374.17304687499995,185.78394022854894L380.30703125,200.77508796345106L386.441015625,183.16631956533953L392.57500000000005,174.52149954709142L398.708984375,156.77574005993932L404.84296874999995,145.00823411074558L410.976953125,216.2379213896665L417.1109375,202.53950704227796L423.24492187500005,160.13612779704013L429.37890625,157.874978130514L435.51289062499995,183.63931265744299L441.646875,204.8748517036438L447.780859375,187.2559100931341L453.91484375000005,264.3397295475006L460.048828125,234.33026465502658L466.18281249999995,221.54380321502686L472.316796875,241.76516695456073L478.45078125,237.83029913902283L484.58476562500005,256.99814297936183L490.71875,177.6772382042625L496.85273437499995,235.7571291923523L502.98671874999997,196.74473903395915L509.12070312500003,243.47455263137817L515.2546875,205.459913557226L521.388671875,232.53704190254211L527.52265625,217.25679516792297L533.6566406249999,238.67026329040527L539.7906250000001,239.60505485534668L545.924609375,232.04983082684606L552.05859375,283.41254169290715L558.192578125,225.17613031647423L564.3265624999999,234.05056259848857L570.4605468750001,222.74485512213275L576.59453125,208.82136355746877L582.728515625,213.61025008288303L588.8625,280.14322259209376L594.9964843749999,243.11391429467636L601.1304687500001,313.2979669354179L607.264453125,279.5549330928109L613.3984375,283.0410355871374L619.532421875,246.3154119795019L625.6664062499999,294.1542691534216L631.8003906250001,251.6150836511092L637.934375,262.98338294029236L644.068359375,299.0032144026323L650.20234375,307.20306873321533L656.3363281249999,302.5180388580669L662.4703125000001,297.7039848674428L668.604296875,310.5634564703161L674.73828125,307.43398839777166L680.872265625,254.35988989743322L687.0062499999999,303.4528304230083L693.1402343750001,277.85796772349966L699.27421875,280.2650968594985L705.408203125,304.8014143380252L711.5421875,307.9219757426869L717.6761718749999,267.0458449016918L723.8101562500001,297.49120538884944L729.944140625,278.1326036019759L736.078125,294.74721626801926L742.212109375,300.93493992632085L748.3460937499999,291.69100349599665L754.4800781250001,383.0524158477783L760.6140625,337.23851821639323L766.748046875,331.9491831822829L772.88203125,331.0752674666318L779.0160156249999,335.3699973496524L785.1500000000001,391.8932438438589L791.283984375,318.20010705427694L797.41796875,354.3873062458905L803.551953125,337.6903477582065L809.6859374999999,352.5249546766281L815.8199218750001,296.67988148602575L821.95390625,341.1690552668138L828.087890625,359.8378192836588L834.221875,376.49943709373474L840.3558593749999,327.8345477581024L846.4898437500001,351.5369682420384L852.623828125,357.67182388088924L858.7578125,351.34367720647293L864.891796875,344.8285109346563L871.0257812499999,363.64856573668396L877.1597656250001,365.22651677781886L883.29375,300.1032695987008L889.427734375,334.36133764006877L895.56171875,350.6911820715124L901.6957031249999,316.56806230545044" style="fill: none;" fill="none"></path></g></g></g></g></g><g><g opacity="0.555352"><span fill="rgb(0, 0, 0)" stroke="none" stroke-width="1px">Alt + Scroll to Zoom</span></g></g></g><g transform="translate(51, 377)" clip-path="url(#clip_1)"><clipPath id="clip_1"><rect width="981" height="23"></rect></clipPath><g><g><line x1="0" y1="0" x2="0" y2="5" style="visibility: inherit;" fill="rgb(0, 0, 0)" stroke="rgb(204, 204, 204)" stroke-width="1px"></line><line x1="122.6796875" y1="0" x2="122.6796875" y2="5" style="visibility: inherit;" fill="rgb(0, 0, 0)" stroke="rgb(204, 204, 204)" stroke-width="1px"></line><line x1="245.359375" y1="0" x2="245.359375" y2="5" style="visibility: inherit;" fill="rgb(0, 0, 0)" stroke="rgb(204, 204, 204)" stroke-width="1px"></line><line x1="368.0390625" y1="0" x2="368.0390625" y2="5" style="visibility: inherit;" fill="rgb(0, 0, 0)" stroke="rgb(204, 204, 204)" stroke-width="1px"></line><line x1="490.71875" y1="0" x2="490.71875" y2="5" style="visibility: inherit;" fill="rgb(0, 0, 0)" stroke="rgb(204, 204, 204)" stroke-width="1px"></line><line x1="613.3984375" y1="0" x2="613.3984375" y2="5" style="visibility: inherit;" fill="rgb(0, 0, 0)" stroke="rgb(204, 204, 204)" stroke-width="1px"></line><line x1="736.078125" y1="0" x2="736.078125" y2="5" style="visibility: inherit;" fill="rgb(0, 0, 0)" stroke="rgb(204, 204, 204)" stroke-width="1px"></line><line x1="858.7578125" y1="0" x2="858.7578125" y2="5" style="visibility: inherit;" fill="rgb(0, 0, 0)" stroke="rgb(204, 204, 204)" stroke-width="1px"></line><line x1="981.4375" y1="0" x2="981.4375" y2="5" style="visibility: inherit;" fill="rgb(0, 0, 0)" stroke="rgb(204, 204, 204)" stroke-width="1px"></line></g><g transform="translate(0, 8)"><text x="0" y="0" dx="0em" dy="0.95em" style="text-anchor: middle; visibility: hidden; font-family: Roboto, sans-serif; font-size: 12px; font-weight: 200;" fill="rgb(33, 33, 33)" stroke="none" stroke-width="1px">-2k</text><text x="122.6796875" y="0" dx="0em" dy="0.95em" style="text-anchor: middle; visibility: inherit; font-family: Roboto, sans-serif; font-size: 12px; font-weight: 200;" fill="rgb(33, 33, 33)" stroke="none" stroke-width="1px">0</text><text x="245.359375" y="0" dx="0em" dy="0.95em" style="text-anchor: middle; visibility: inherit; font-family: Roboto, sans-serif; font-size: 12px; font-weight: 200;" fill="rgb(33, 33, 33)" stroke="none" stroke-width="1px">2k</text><text x="368.0390625" y="0" dx="0em" dy="0.95em" style="text-anchor: middle; visibility: inherit; font-family: Roboto, sans-serif; font-size: 12px; font-weight: 200;" fill="rgb(33, 33, 33)" stroke="none" stroke-width="1px">4k</text><text x="490.71875" y="0" dx="0em" dy="0.95em" style="text-anchor: middle; visibility: inherit; font-family: Roboto, sans-serif; font-size: 12px; font-weight: 200;" fill="rgb(33, 33, 33)" stroke="none" stroke-width="1px">6k</text><text x="613.3984375" y="0" dx="0em" dy="0.95em" style="text-anchor: middle; visibility: inherit; font-family: Roboto, sans-serif; font-size: 12px; font-weight: 200;" fill="rgb(33, 33, 33)" stroke="none" stroke-width="1px">8k</text><text x="736.078125" y="0" dx="0em" dy="0.95em" style="text-anchor: middle; visibility: inherit; font-family: Roboto, sans-serif; font-size: 12px; font-weight: 200;" fill="rgb(33, 33, 33)" stroke="none" stroke-width="1px">10k</text><text x="858.7578125" y="0" dx="0em" dy="0.95em" style="text-anchor: middle; visibility: inherit; font-family: Roboto, sans-serif; font-size: 12px; font-weight: 200;" fill="rgb(33, 33, 33)" stroke="none" stroke-width="1px">12k</text><text x="981.4375" y="0" dx="0em" dy="0.95em" style="text-anchor: middle; visibility: hidden; font-family: Roboto, sans-serif; font-size: 12px; font-weight: 200;" fill="rgb(33, 33, 33)" stroke="none" stroke-width="1px">14k</text></g><line x1="0" y1="0" x2="981.4375" y2="0" fill="rgb(0, 0, 0)" stroke="rgb(204, 204, 204)" stroke-width="1px"></line></g></g></g></g></svg>